<?xml version="1.0" encoding="UTF-8"?>
<svg width="24" height="24" viewBox="0 0 24 24" xmlns="http://www.w3.org/2000/svg" fill="none" stroke="currentColor" stroke-width="2" stroke-linecap="round" stroke-linejoin="round">
  <path d="M3 2v7c0 1.1.9 2 2 2h4a2 2 0 0 0 2-2V2"/>
  <path d="M7 2v20"/>
  <path d="M21 15V2v0a5 5 0 0 0-5 5v6c0 1.1.9 2 2 2h3z"/>
  <path d="M17 21v-2a4 4 0 0 0-4-4H5a4 4 0 0 0-4 4v2"/>
  <circle cx="9" cy="7" r="1"/>
  <circle cx="9" cy="15" r="1"/>
  <circle cx="19" cy="11" r="1"/>
</svg>